<?xml version="1.0" encoding="UTF-8"?>
<svg xmlns="http://www.w3.org/2000/svg" xmlns:xlink="http://www.w3.org/1999/xlink" viewBox="0 0 64 64" width="64px" height="64px">
<g id="surface257514113">
<path style=" stroke:none;fill-rule:nonzero;fill:rgb(80.000001%,80.000001%,80.000001%);fill-opacity:1;" d="M 32 14 C 15.320312 14 1.898438 28.042969 1.339844 28.621094 L 0.0585938 30 L 1.339844 31.378906 C 1.800781 31.859375 11.300781 41.78125 24.160156 45 C 24.367188 44.582031 24.5625 44.136719 24.757812 43.695312 C 24.757812 43.695312 24.761719 43.699219 24.761719 43.699219 C 24.769531 43.675781 24.78125 43.65625 24.789062 43.632812 C 25.023438 43.101562 25.234375 42.5625 25.441406 42.015625 C 25.488281 41.894531 25.539062 41.773438 25.582031 41.652344 C 25.632812 41.511719 25.691406 41.378906 25.738281 41.238281 C 25.730469 41.238281 25.722656 41.230469 25.714844 41.230469 C 25.882812 40.742188 26.054688 40.25 26.179688 39.761719 C 23.660156 37.582031 22 34.019531 22 30 C 22 23.378906 26.480469 18 32 18 C 37.519531 18 42 23.378906 42 30 C 42 33.160156 41 36.019531 39.339844 38.140625 L 39.339844 45.121094 C 52.460938 42.042969 62.179688 31.878906 62.660156 31.378906 L 63.941406 30 L 62.660156 28.621094 C 62.101562 28.042969 48.679688 14 32 14 Z M 32 20 L 24 32 L 29.691406 37.691406 C 28.753906 43.214844 26 46 26 46 C 26 46 28.085938 47.03125 30 47.609375 L 30 52 L 32 52 L 32 48 L 34 48 L 34 52 L 36 52 L 36 36 L 40 32 Z M 20.917969 20.257812 C 19.09375 22.960938 18 26.332031 18 30 C 18 33.632812 19.066406 36.984375 20.855469 39.671875 C 13.800781 36.890625 8.183594 32.289062 5.679688 30 C 8.1875 27.691406 13.828125 23.042969 20.917969 20.257812 Z M 43.082031 20.257812 C 50.171875 23.042969 55.8125 27.691406 58.320312 30 C 55.8125 32.304688 50.1875 36.933594 43.105469 39.714844 C 44.914062 37.015625 46 33.648438 46 30 C 46 26.332031 44.90625 22.960938 43.082031 20.257812 Z M 32 28 L 36 32 L 32 36 L 28 32 Z M 32 28 "/>
</g>
</svg>
